<?xml version="1.0" encoding="utf-8"?>
<!-- Generator: Adobe Illustrator 24.0.2, SVG Export Plug-In . SVG Version: 6.00 Build 0)  -->
<svg version="1.1" id="Layer_1" xmlns="http://www.w3.org/2000/svg" xmlns:xlink="http://www.w3.org/1999/xlink" x="0px" y="0px"
	 viewBox="0 0 180 180" style="enable-background:new 0 0 180 180;" xml:space="preserve">
<style type="text/css">
	.st0{fill:url(#SVGID_1_);}
	.st1{fill:#075BCF;}
	.st2{fill:#57D4F4;}
	.st3{fill:url(#SVGID_2_);}
	.st4{fill:url(#SVGID_3_);}
	.st5{fill:#FFFFFF;}
	.st6{fill:#009CFF;}
	.st7{fill:url(#SVGID_4_);}
	.st8{fill:url(#SVGID_5_);}
	.st9{fill:none;stroke:#FFFFFF;stroke-width:2;stroke-miterlimit:10;}
	.st10{fill:none;stroke:#FFFFFF;stroke-miterlimit:10;}
	.st11{fill:none;stroke:#075BCF;stroke-width:2;stroke-miterlimit:10;}
	.st12{fill:url(#SVGID_8_);}
	.st13{fill:#EDEDED;}
	.st14{clip-path:url(#SVGID_17_);}
	.st15{clip-path:url(#SVGID_21_);}
</style>
<g>
	<path class="st1" d="M90,37.48c-28.96,0-52.52,23.56-52.52,52.52S61.04,142.52,90,142.52s52.52-23.56,52.52-52.52
		S118.96,37.48,90,37.48L90,37.48z M90,135.95c-25.34,0-45.95-20.61-45.95-45.95S64.66,44.05,90,44.05S135.95,64.66,135.95,90
		S115.34,135.95,90,135.95L90,135.95z M90,135.95"/>
	<path class="st1" d="M93.28,57.18h-6.56v34.18l20.66,20.66l4.64-4.64L93.28,88.64V57.18z M93.28,57.18"/>
</g>
</svg>
