<?xml version="1.0" encoding="utf-8"?>
<!-- Generator: Adobe Illustrator 24.0.2, SVG Export Plug-In . SVG Version: 6.00 Build 0)  -->
<svg version="1.1" id="Layer_1" xmlns="http://www.w3.org/2000/svg" xmlns:xlink="http://www.w3.org/1999/xlink" x="0px" y="0px"
	 viewBox="0 0 180 180" style="enable-background:new 0 0 180 180;" xml:space="preserve">
<style type="text/css">
	.st0{fill:url(#SVGID_1_);}
	.st1{fill:#075BCF;}
	.st2{fill:#57D4F4;}
	.st3{fill:url(#SVGID_2_);}
	.st4{fill:url(#SVGID_3_);}
	.st5{fill:#FFFFFF;}
	.st6{fill:#009CFF;}
	.st7{fill:url(#SVGID_4_);}
	.st8{fill:url(#SVGID_5_);}
	.st9{fill:none;stroke:#FFFFFF;stroke-width:2;stroke-miterlimit:10;}
	.st10{fill:none;stroke:#FFFFFF;stroke-miterlimit:10;}
	.st11{fill:none;stroke:#075BCF;stroke-width:2;stroke-miterlimit:10;}
	.st12{fill:url(#SVGID_8_);}
	.st13{fill:#EDEDED;}
	.st14{clip-path:url(#SVGID_17_);}
	.st15{clip-path:url(#SVGID_21_);}
</style>
<g>
	<g>
		<defs>
			<path id="SVGID_19_" d="M145.93,75.49c-1.18-8.45-8.39-14.74-16.92-14.75c-0.34,0-0.71,0-1.05,0.02
				c-4.26-16.69-18.99-28.58-36.21-29.23c-1.2-0.05-2.29-0.05-3.68,0c-17.16,0.73-31.81,12.62-36.06,29.26
				c-8.37,0.65-15.39,6.55-17.48,14.68c-10.02,0.94-17.67,9.35-17.68,19.41c0,0.16,0.01,0.32,0.02,0.49
				c0.19,7.83,5.04,14.78,12.31,17.68l0.34,0.12c0.34,0.12,0.71,0.27,1.05,0.37c1.87,0.57,3.82,0.85,5.78,0.85h26.82v4.88H58.3
				c-0.85,0-1.63,0.44-2.07,1.16c-0.44,0.72-0.48,1.62-0.1,2.37l12.19,24.38c0.42,0.81,1.26,1.33,2.17,1.33
				c0.92,0,1.75-0.51,2.17-1.33l12.19-24.38c0.38-0.75,0.34-1.65-0.1-2.37c-0.44-0.72-1.23-1.16-2.07-1.16h-4.88v-4.88h24.38v31.7
				c0,1.35,1.09,2.44,2.44,2.44h9.75c1.35,0,2.44-1.09,2.44-2.44v-31.7h26.82c0.6,0,1.19-0.03,1.78-0.1c0.1,0,0.2,0,0.29-0.02
				c0.5-0.04,1-0.11,1.49-0.22c1.37-0.24,2.71-0.63,4-1.17c0.54-0.22,1.07-0.48,1.58-0.76l0.29-0.15l0.32-0.19
				c0.26-0.13,0.51-0.28,0.76-0.44c5.44-3.52,8.8-9.49,8.97-15.97c0.02-0.16,0.02-0.32,0.02-0.49
				C163.13,84.99,155.74,76.67,145.93,75.49L145.93,75.49z M78.74,124.13l-8.24,16.48l-8.24-16.48h3.36c1.35,0,2.44-1.09,2.44-2.44
				V80.24h4.88v41.45c0,1.35,1.09,2.44,2.44,2.44H78.74z M114.38,99.75c-1.35,0-2.44,1.09-2.44,2.44v41.45h-4.88v-41.45
				c0-1.35-1.09-2.44-2.44-2.44h-3.36l8.24-16.48l8.24,16.48H114.38z M158.24,95.19c-0.1,4.87-2.6,9.37-6.68,12.02
				c-0.2,0.1-0.37,0.22-0.56,0.32l-0.49,0.24c-0.37,0.22-0.75,0.42-1.15,0.58c-1.01,0.41-2.07,0.71-3.15,0.9
				c-0.3,0.07-0.61,0.12-0.93,0.15c-0.1,0-0.2,0-0.29,0.02c-0.45,0.05-0.91,0.07-1.37,0.07h-26.82v-4.88h4.88
				c0.85,0,1.63-0.44,2.07-1.16c0.44-0.72,0.48-1.62,0.1-2.37l-12.19-24.38c-0.46-0.76-1.28-1.23-2.17-1.23
				c-0.89,0-1.71,0.47-2.17,1.23l-12.19,24.38c-0.38,0.75-0.34,1.65,0.1,2.37c0.44,0.72,1.23,1.16,2.07,1.16h4.88v4.88H77.81V77.8
				c0-1.35-1.09-2.44-2.44-2.44h-9.75c-1.35,0-2.44,1.09-2.44,2.44v31.7H36.36c-1.5,0-2.98-0.22-4.41-0.66
				c-0.24-0.07-0.49-0.17-0.73-0.27l-0.29-0.1c-5.47-2.19-9.09-7.46-9.17-13.36c0-0.11,0-0.21-0.02-0.32
				c0.08-8.11,6.71-14.62,14.82-14.56c1.21,0,2.24-0.89,2.41-2.1c1.05-7.18,7.2-12.52,14.46-12.53h0.29
				c1.28,0.18,2.47-0.7,2.68-1.98C59.48,48.26,72.7,37,88.37,36.4c1.07-0.05,2.07-0.05,3.27,0c15.77,0.57,29.04,11.98,31.99,27.48
				c0.12,0.65,0.5,1.23,1.05,1.61c0.54,0.36,1.21,0.5,1.85,0.37c0.82-0.17,1.65-0.25,2.49-0.24c6.73,0,12.19,5.46,12.19,12.19
				c0,1.35,1.09,2.44,2.44,2.44c8.05,0.01,14.57,6.51,14.63,14.56C158.25,94.93,158.24,95.06,158.24,95.19L158.24,95.19z
				 M158.24,95.19"/>
		</defs>
		<defs>
			<path id="SVGID_20_" d="M114.38,149.01h-9.75c-1.62,0-2.94-1.32-2.94-2.94v-31.2H78.31v3.88h4.38c1.01,0,1.97,0.54,2.5,1.4
				c0.53,0.86,0.57,1.96,0.12,2.86l-12.19,24.38c-0.51,0.99-1.51,1.6-2.62,1.6s-2.11-0.61-2.62-1.6l-12.19-24.39
				c-0.45-0.9-0.41-2,0.12-2.86c0.53-0.86,1.48-1.4,2.5-1.4h4.38v-3.88H36.36c-2.01,0-4.01-0.29-5.92-0.88
				c-0.25-0.07-0.52-0.17-0.78-0.27l-0.64-0.23c-7.49-2.98-12.45-10.09-12.64-18.13c-0.02-0.14-0.03-0.32-0.02-0.5
				C16.36,84.61,23.98,76.13,34.14,75c2.22-8.04,9.17-13.89,17.48-14.68c4.45-16.79,19.04-28.55,36.43-29.29
				c1.41-0.05,2.52-0.05,3.72,0c17.17,0.65,32.15,12.64,36.57,29.21c0.22-0.01,0.45-0.01,0.67-0.01c8.6,0.01,15.99,6.35,17.36,14.8
				c9.86,1.38,17.26,9.84,17.27,19.83c0,0.18-0.01,0.36-0.03,0.54c-0.18,6.61-3.62,12.73-9.2,16.34c-0.26,0.17-0.52,0.32-0.8,0.46
				l-0.62,0.34c-0.52,0.28-1.07,0.54-1.62,0.77c-1.31,0.55-2.7,0.95-4.1,1.2c-0.48,0.1-1,0.18-1.53,0.23
				c-0.08,0.02-0.22,0.03-0.35,0.03c-0.54,0.07-1.15,0.1-1.76,0.1h-26.32v31.2C117.32,147.69,116,149.01,114.38,149.01z
				 M77.31,113.88h25.38v32.2c0,1.07,0.87,1.94,1.94,1.94h9.75c1.07,0,1.94-0.87,1.94-1.94v-32.2h27.32c0.56,0,1.15-0.03,1.72-0.09
				c0.13,0,0.19,0,0.25-0.02c0.54-0.05,1.02-0.12,1.48-0.22c1.35-0.24,2.66-0.62,3.91-1.14c0.52-0.21,1.04-0.46,1.54-0.73l0.59-0.33
				c0.28-0.14,0.51-0.28,0.74-0.43c5.31-3.43,8.58-9.25,8.75-15.57c0.02-0.18,0.02-0.33,0.02-0.47
				c-0.02-9.62-7.23-17.74-16.77-18.89l-0.38-0.05l-0.05-0.38c-1.14-8.15-8.2-14.31-16.43-14.32c-0.34-0.02-0.68,0-1.01,0.02
				l-0.42,0.03l-0.1-0.4c-4.17-16.36-18.87-28.22-35.74-28.86c-1.18-0.05-2.27-0.05-3.65,0C71.03,32.75,56.73,44.36,52.5,60.91
				l-0.09,0.35l-0.36,0.03c-8.15,0.64-15,6.38-17.04,14.3l-0.09,0.34l-0.35,0.03c-9.81,0.92-17.22,9.05-17.22,18.91
				c0,0.15,0.01,0.29,0.02,0.43c0.19,7.68,4.9,14.44,12,17.27l0.63,0.23c0.24,0.09,0.48,0.18,0.71,0.25
				c1.83,0.55,3.73,0.83,5.64,0.83h27.32v5.88H58.3c-0.67,0-1.3,0.36-1.64,0.92c-0.35,0.57-0.38,1.29-0.08,1.89l12.19,24.38
				c0.33,0.65,0.99,1.05,1.72,1.05s1.39-0.4,1.73-1.06l12.19-24.38c0.3-0.6,0.27-1.32-0.08-1.89c-0.35-0.57-0.98-0.92-1.65-0.92
				h-5.38V113.88z M112.44,144.13h-5.88v-41.95c0-1.07-0.87-1.94-1.94-1.94h-4.17l9.05-18.1l9.05,18.1h-4.17
				c-1.07,0-1.94,0.87-1.94,1.94V144.13z M107.57,143.13h3.88v-40.95c0-1.62,1.32-2.94,2.94-2.94h2.56l-7.43-14.86l-7.43,14.86h2.56
				c1.62,0,2.94,1.32,2.94,2.94V143.13z M70.49,141.73l-9.05-18.1h4.17c1.07,0,1.94-0.87,1.94-1.94V79.74h5.88v41.95
				c0,1.07,0.87,1.94,1.94,1.94h4.17L70.49,141.73z M63.06,124.63l7.43,14.86l7.43-14.86h-2.56c-1.62,0-2.94-1.32-2.94-2.94V80.74
				h-3.88v40.95c0,1.62-1.32,2.94-2.94,2.94H63.06z M143.64,110h-27.32v-5.88h5.38c0.67,0,1.29-0.35,1.64-0.92
				c0.35-0.58,0.38-1.28,0.08-1.89l-12.19-24.38c-0.35-0.57-1.01-0.95-1.72-0.95s-1.38,0.38-1.74,0.98l-12.17,24.35
				c-0.3,0.61-0.27,1.31,0.08,1.89c0.35,0.57,0.98,0.92,1.65,0.92h5.37V110H77.31V77.8c0-1.07-0.87-1.94-1.94-1.94h-9.75
				c-1.07,0-1.94,0.87-1.94,1.94V110H36.36c-1.55,0-3.08-0.23-4.56-0.68c-0.25-0.08-0.5-0.17-0.75-0.27l-0.29-0.09
				c-5.71-2.29-9.43-7.71-9.51-13.83c0-0.1,0-0.16-0.01-0.22l-0.01-0.05l0-0.05c0.08-8.33,6.89-15.05,15.2-15.05
				c0.04,0,0.09,0,0.13,0c0.96,0,1.78-0.72,1.91-1.67c1.08-7.38,7.5-12.95,14.95-12.96h0.29c1.08,0.15,2.02-0.55,2.19-1.55
				c3.14-15.68,16.47-27.05,32.44-27.65c1.08-0.05,2.1-0.05,3.31,0c16.1,0.59,29.45,12.05,32.46,27.88c0.1,0.52,0.4,0.99,0.84,1.29
				c0.43,0.29,0.96,0.4,1.47,0.29c0.85-0.18,1.72-0.27,2.59-0.25c6.99,0,12.69,5.69,12.69,12.69c0,1.07,0.87,1.94,1.94,1.94
				c8.29,0.01,15.07,6.77,15.13,15.05c-0.02,0.17-0.03,0.28-0.02,0.38v0.02c-0.1,5.04-2.68,9.69-6.91,12.43
				c-0.13,0.07-0.21,0.12-0.3,0.17c-0.1,0.06-0.2,0.12-0.31,0.18l-0.49,0.24c-0.34,0.21-0.75,0.42-1.18,0.6
				c-1.05,0.42-2.14,0.74-3.25,0.93c-0.3,0.08-0.64,0.13-0.98,0.15c-0.11,0-0.17,0-0.23,0.01C144.58,109.97,144.11,110,143.64,110z
				 M117.32,109h26.32c0.43,0,0.87-0.02,1.31-0.07c0.09-0.02,0.23-0.03,0.37-0.03c0.23-0.02,0.51-0.06,0.79-0.13
				c1.08-0.19,2.1-0.48,3.08-0.88c0.38-0.16,0.74-0.34,1.07-0.55l0.53-0.27c0.09-0.04,0.17-0.09,0.25-0.14
				c0.1-0.06,0.2-0.12,0.31-0.18c3.9-2.53,6.31-6.87,6.41-11.57c0-0.15,0.01-0.31,0.03-0.46c-0.06-7.66-6.4-13.97-14.13-13.98
				c-1.62,0-2.94-1.32-2.94-2.94c0-6.45-5.24-11.69-11.69-11.69c-0.8,0-1.6,0.07-2.38,0.23c-0.79,0.16-1.58,0-2.23-0.44
				c-0.66-0.45-1.12-1.15-1.26-1.93c-2.92-15.37-15.88-26.5-31.52-27.07c-1.18-0.05-2.17-0.05-3.23,0
				c-15.5,0.59-28.45,11.62-31.5,26.83c-0.25,1.52-1.7,2.59-3.24,2.37l-0.22,0c-6.96,0.01-12.96,5.22-13.96,12.1
				c-0.21,1.48-1.52,2.53-3.03,2.52c-7.75,0-14.1,6.26-14.2,14.01c0.02,0.13,0.03,0.26,0.02,0.38c0.07,5.68,3.55,10.75,8.85,12.88
				l0.27,0.09c0.27,0.11,0.49,0.2,0.72,0.26c1.38,0.42,2.82,0.63,4.27,0.64h26.32V77.8c0-1.62,1.32-2.94,2.94-2.94h9.75
				c1.62,0,2.94,1.32,2.94,2.94V109h23.38v-3.88h-4.38c-1.01,0-1.97-0.54-2.5-1.4c-0.54-0.88-0.58-1.94-0.12-2.86l12.19-24.38
				c0.56-0.94,1.56-1.5,2.62-1.5s2.05,0.56,2.6,1.47l12.21,24.42c0.46,0.92,0.42,1.99-0.12,2.86c-0.54,0.87-1.47,1.4-2.49,1.4h-4.38
				V109z"/>
		</defs>
		<use xlink:href="#SVGID_19_"  style="overflow:visible;fill:#075BCF;"/>
		<use xlink:href="#SVGID_20_"  style="overflow:visible;fill:#075BCF;"/>
		<clipPath id="SVGID_1_">
			<use xlink:href="#SVGID_19_"  style="overflow:visible;"/>
		</clipPath>
		<clipPath id="SVGID_2_" style="clip-path:url(#SVGID_1_);">
			<use xlink:href="#SVGID_20_"  style="overflow:visible;"/>
		</clipPath>
	</g>
</g>
</svg>
