<?xml version="1.0" encoding="utf-8"?>
<!-- Generator: Adobe Illustrator 24.0.2, SVG Export Plug-In . SVG Version: 6.00 Build 0)  -->
<svg version="1.1" id="Layer_1" xmlns="http://www.w3.org/2000/svg" xmlns:xlink="http://www.w3.org/1999/xlink" x="0px" y="0px"
	 viewBox="0 0 180 180" style="enable-background:new 0 0 180 180;" xml:space="preserve">
<style type="text/css">
	.st0{fill:url(#SVGID_1_);}
	.st1{fill:#075BCF;}
	.st2{fill:#57D4F4;}
	.st3{fill:url(#SVGID_2_);}
	.st4{fill:url(#SVGID_3_);}
	.st5{fill:#FFFFFF;}
	.st6{fill:#009CFF;}
	.st7{fill:url(#SVGID_4_);}
	.st8{fill:url(#SVGID_5_);}
	.st9{fill:none;stroke:#FFFFFF;stroke-width:2;stroke-miterlimit:10;}
	.st10{fill:none;stroke:#FFFFFF;stroke-miterlimit:10;}
	.st11{fill:none;stroke:#075BCF;stroke-width:2;stroke-miterlimit:10;}
	.st12{fill:url(#SVGID_8_);}
	.st13{fill:#EDEDED;}
	.st14{clip-path:url(#SVGID_17_);}
	.st15{clip-path:url(#SVGID_21_);}
</style>
<g>
	<path class="st1" d="M123.01,49.04c-0.14-0.5-0.47-0.92-0.93-1.16c-0.91-0.48-2.03-0.13-2.51,0.77c0,0,0,0,0,0.01
		c0,0.05-9.41,18.3-38.29,21.48c-3.77,0.4-7.45,1.39-10.92,2.91c-6.2,2.7-11.33,7.39-14.56,13.34c-3.02,5.58-4.26,11.95-3.58,18.26
		c0.5,4.6,2.04,9.03,4.49,12.95l2.2,3.02c5.71,7.02,14.27,10.98,23.45,11.62c6.18,0.4,12.37-0.66,18.07-3.08
		c6.19-2.6,11.65-6.66,15.92-11.83C127.36,104,132.6,81.59,123.01,49.04z M59.97,115.77c-0.71-1.12-1.33-2.28-1.87-3.49
		c-1.13-2.55-1.85-5.25-2.15-8.02c-0.63-5.56,0.44-11.17,3.08-16.11c2.85-5.23,7.36-9.36,12.83-11.73c3.12-1.36,6.44-2.23,9.83-2.58
		c19.06-2.05,30.28-10.54,36.06-16.69c-3.4,11.19-9.25,21.49-17.13,30.13l-1.13-11.37c-0.06-1.02-0.93-1.81-1.96-1.75
		c-1.02,0.06-1.81,0.93-1.75,1.96c0,0.05,0.01,0.1,0.01,0.15l1.45,14.61C88.6,99.64,76.61,108.44,59.97,115.77z M113.47,114.96v0.01
		c-3.88,4.73-8.85,8.44-14.49,10.81c-5.18,2.19-10.8,3.13-16.42,2.75c-7.81-0.4-15.14-3.89-20.37-9.72
		c6.12-2.71,12.04-5.85,17.71-9.41l16.3,3.08c1.01,0.16,1.96-0.53,2.12-1.55c0.15-0.98-0.49-1.9-1.46-2.11l-12.53-2.37
		c5.78-3.97,11.17-8.5,16.08-13.51c0.09-0.08,0.17-0.16,0.25-0.26c12.95-13.48,18.46-26.82,20.76-35.03
		C127.78,84.72,122.92,103.53,113.47,114.96z"/>
	<path class="st1" d="M84.88,133.58c-0.87,0-1.74-0.03-2.6-0.08c-9.92-0.7-18.57-4.99-24.34-12.08l-2.24-3.07
		c-2.59-4.13-4.21-8.79-4.73-13.55c-0.71-6.59,0.57-13.16,3.72-18.99c3.35-6.16,8.73-11.09,15.16-13.89
		c3.59-1.58,7.38-2.59,11.28-3.01c27.47-3.03,36.7-19.66,37.26-20.72l0.06-0.11c0.8-1.51,2.69-2.09,4.2-1.29
		c0.76,0.39,1.32,1.09,1.55,1.92c8.55,29.03,6.1,53.69-6.9,69.44c-4.38,5.31-10.05,9.52-16.4,12.19
		C95.86,132.47,90.37,133.58,84.88,133.58z M120.63,49.22c-0.73,1.62-3.71,5.91-8.59,9.97c-5.57,4.64-15.4,10.52-30.64,12.2
		c-3.65,0.39-7.19,1.34-10.55,2.81C64.93,76.78,59.97,81.32,56.89,87c-2.91,5.38-4.09,11.45-3.44,17.53
		c0.48,4.39,1.97,8.68,4.31,12.42l2.15,2.94c5.29,6.5,13.31,10.46,22.53,11.11c5.95,0.39,12-0.65,17.49-2.98
		c5.98-2.51,11.32-6.48,15.45-11.48c12.46-15.09,14.74-38.94,6.42-67.15l-0.01-0.03c-0.04-0.16-0.16-0.3-0.31-0.38
		c-0.3-0.16-0.67-0.05-0.83,0.25L120.63,49.22z M84.98,129.87c-0.83,0-1.67-0.03-2.5-0.08c-8.07-0.41-15.81-4.1-21.21-10.13
		l-1.15-1.28l1.57-0.7c6.04-2.67,11.95-5.81,17.55-9.32l0.42-0.26l16.78,3.17c0.19,0.03,0.34-0.06,0.41-0.12s0.21-0.18,0.24-0.4
		c0.05-0.32-0.16-0.62-0.47-0.69l-15.46-2.92l2.48-1.7c5.7-3.92,11.05-8.41,15.89-13.36l0.08-0.07c0.03-0.02,0.05-0.05,0.08-0.08
		l0.08-0.1c12.59-13.11,18.07-26,20.45-34.5l1.31-4.68l1.11,4.73c7.22,30.81-0.24,48.52-7.93,58.02v0.01l-0.28,0.35
		c-3.99,4.86-9.17,8.73-14.97,11.17C94.9,128.87,89.94,129.87,84.98,129.87z M64.33,119.24c4.88,4.79,11.45,7.71,18.31,8.05
		c5.41,0.37,10.89-0.55,15.87-2.65c5.31-2.24,10.06-5.75,13.76-10.16l0.25-0.31c7.04-8.51,14.03-24.28,8.69-51.63
		c-3.01,8.49-8.72,19.67-19.58,30.99c-0.1,0.12-0.21,0.23-0.33,0.34c-4.25,4.34-8.89,8.34-13.81,11.92l9.63,1.82
		c1.64,0.34,2.71,1.89,2.46,3.53c-0.13,0.82-0.57,1.54-1.24,2.03c-0.67,0.49-1.49,0.69-2.31,0.56l-15.86-2.99
		C75.08,113.89,69.77,116.75,64.33,119.24z M59.49,117.35l-0.58-0.91c-0.74-1.17-1.4-2.4-1.95-3.65c-1.18-2.67-1.94-5.49-2.25-8.39
		c-0.66-5.83,0.45-11.65,3.22-16.83c2.97-5.46,7.74-9.82,13.43-12.29c3.25-1.41,6.68-2.31,10.2-2.67
		c18.35-1.97,29.31-9.96,35.28-16.31l3.66-3.89l-1.55,5.11c-3.43,11.3-9.45,21.89-17.41,30.61l-1.89,2.07l-1.41-14.16
		c-0.02-0.39-0.31-0.65-0.64-0.63c-0.33,0.02-0.59,0.31-0.57,0.64l1.52,15.29l-0.41,0.42c-9.89,10.03-22.56,18.5-37.65,25.15
		L59.49,117.35z M114.91,61.59c-6.73,5.79-17.3,11.8-33.1,13.5c-3.27,0.33-6.45,1.17-9.46,2.48c-5.19,2.25-9.53,6.22-12.23,11.18
		c-2.52,4.72-3.54,10.04-2.93,15.37c0.29,2.65,0.98,5.23,2.06,7.66c0.36,0.82,0.77,1.62,1.22,2.4
		c14.15-6.36,26.08-14.35,35.46-23.75l-1.39-14.02c0-0.01-0.01-0.09-0.02-0.17c-0.1-1.74,1.22-3.21,2.93-3.31
		c1.71-0.07,3.18,1.22,3.28,2.93l0.84,8.45C107.25,77.58,111.8,69.84,114.91,61.59z"/>
</g>
</svg>
