<?xml version="1.0" encoding="utf-8"?>
<!-- Generator: Adobe Illustrator 24.0.2, SVG Export Plug-In . SVG Version: 6.00 Build 0)  -->
<svg version="1.1" id="Layer_1" xmlns="http://www.w3.org/2000/svg" xmlns:xlink="http://www.w3.org/1999/xlink" x="0px" y="0px"
	 viewBox="0 0 180 180" style="enable-background:new 0 0 180 180;" xml:space="preserve">
<style type="text/css">
	.st0{fill:url(#SVGID_1_);}
	.st1{fill:#075BCF;}
	.st2{fill:#57D4F4;}
	.st3{fill:url(#SVGID_2_);}
	.st4{fill:url(#SVGID_3_);}
	.st5{fill:#FFFFFF;}
	.st6{fill:#009CFF;}
	.st7{fill:url(#SVGID_4_);}
	.st8{fill:url(#SVGID_5_);}
	.st9{fill:none;stroke:#FFFFFF;stroke-width:2;stroke-miterlimit:10;}
	.st10{fill:none;stroke:#FFFFFF;stroke-miterlimit:10;}
	.st11{fill:none;stroke:#075BCF;stroke-width:2;stroke-miterlimit:10;}
	.st12{fill:url(#SVGID_8_);}
	.st13{fill:#EDEDED;}
	.st14{clip-path:url(#SVGID_17_);}
	.st15{clip-path:url(#SVGID_21_);}
</style>
<g>
	<path class="st1" d="M72.09,72.09c0-9.88,8.04-17.91,17.91-17.91s17.91,8.04,17.91,17.91C107.91,81.96,99.88,90,90,90
		S72.09,81.96,72.09,72.09L72.09,72.09z M120.02,102.44c-4.62-4.62-10.13-8.05-16.13-10.12c6.43-4.43,10.66-11.84,10.66-20.23
		c0-13.53-11.01-24.55-24.55-24.55S65.45,58.55,65.45,72.09c0,8.38,4.23,15.8,10.66,20.23c-6.01,2.07-11.51,5.5-16.13,10.12
		c-8.02,8.02-12.44,18.68-12.44,30.02h6.63c0-19.75,16.07-35.82,35.82-35.82s35.82,16.07,35.82,35.82h6.63
		C132.46,121.12,128.04,110.45,120.02,102.44L120.02,102.44z"/>
</g>
</svg>
